<?xml version="1.0" encoding="UTF-8" standalone="no"?>
<svg
   width="1200"
   height="200"
   viewBox="0 0 1200 200"
   fill="none"
   version="1.1"
   id="svg6899"
   sodipodi:docname="livepeer_light_bg.svg"
   inkscape:version="1.2.2 (b0a8486541, 2022-12-01)"
   xmlns:inkscape="http://www.inkscape.org/namespaces/inkscape"
   xmlns:sodipodi="http://sodipodi.sourceforge.net/DTD/sodipodi-0.dtd"
   xmlns="http://www.w3.org/2000/svg"
   xmlns:svg="http://www.w3.org/2000/svg">
  <defs
     id="defs6903" />
  <sodipodi:namedview
     id="namedview6901"
     pagecolor="#ffffff"
     bordercolor="#000000"
     borderopacity="0.25"
     inkscape:showpageshadow="2"
     inkscape:pageopacity="0.0"
     inkscape:pagecheckerboard="0"
     inkscape:deskcolor="#d1d1d1"
     showgrid="false"
     inkscape:zoom="0.54220957"
     inkscape:cx="301.54392"
     inkscape:cy="299.69962"
     inkscape:window-width="1920"
     inkscape:window-height="945"
     inkscape:window-x="1920"
     inkscape:window-y="32"
     inkscape:window-maximized="1"
     inkscape:current-layer="layer4" />
  <g
     inkscape:groupmode="layer"
     id="layer4"
     inkscape:label="bg">
    <rect
       style="fill:#ffffff"
       id="rect8549"
       width="1200"
       height="200"
       x="0"
       y="0"
       inkscape:label="rect8549" />
  </g>
  <g
     id="g7282"
     transform="translate(244.9695,55.947502)"
     inkscape:label="logo"
     style="display:inline">
    <path
       d="M 6.75655e-7,15.6809 0,0.181396 H 15.4995 V 15.6809 Z"
       fill="#181818"
       id="path6871" />
    <path
       d="M 28.4692,33.7414 V 18.2419 h 15.4995 v 15.4995 z"
       fill="#181818"
       id="path6873" />
    <path
       d="M 56.8936,51.8034 V 36.304 H 72.393 v 15.4994 z"
       fill="#181818"
       id="path6875" />
    <path
       d="M 28.4692,69.8186 V 54.3191 h 15.4995 v 15.4995 z"
       fill="#181818"
       id="path6877" />
    <path
       d="M 6.75655e-7,87.8579 0,72.3584 h 15.4995 v 15.4995 z"
       fill="#181818"
       id="path6879" />
    <path
       d="M 6.75655e-7,51.8034 0,36.304 h 15.4995 v 15.4994 z"
       fill="#181818"
       id="path6881" />
    <path
       d="M 118.899,87.9236 V 0.217285 h 17.022 V 72.8778 h 49.894 v 15.0458 z"
       fill="#181818"
       id="path6883" />
    <path
       d="M 195.932,87.9236 V 0.217285 h 17.022 V 87.9236 Z"
       fill="#181818"
       id="path6885" />
    <path
       d="M 291.653,0.217285 H 310.34 L 277.221,87.9236 H 255.142 L 221.283,0.217285 H 240.34 L 266.551,70.1866 Z"
       fill="#181818"
       id="path6887" />
    <path
       d="M 319.038,87.9236 V 51.7689 H 336.06 V 36.3583 H 319.038 V 0.217285 h 66.917 V 15.2631 H 336.06 v 21.0952 h 42.309 V 51.7689 H 336.06 v 21.1089 h 51.19 v 15.0458 z"
       fill="#181818"
       id="path6889" />
    <path
       d="M 400.019,87.9236 V 0.217285 h 39.779 c 17.207,0 28.432,8.658555 28.432,25.942915 0,15.3557 -11.225,25.7006 -28.432,25.7006 h -22.757 v 36.0628 z m 17.022,-51.6557 h 20.845 c 8.635,0 13.26,-4.1429 13.26,-10.29 0,-6.6171 -4.625,-10.7148 -13.26,-10.7148 h -20.845 z"
       fill="#181818"
       id="path6891" />
    <path
       d="M 479.889,87.9236 V 51.7689 h 17.022 V 36.3583 H 479.889 V 0.217285 h 66.916 V 15.2631 h -49.894 v 21.0952 h 42.308 V 51.7689 H 496.911 V 72.8778 H 548.1 v 15.0458 z"
       fill="#181818"
       id="path6893" />
    <path
       d="M 560.869,87.9236 V 51.7689 h 17.022 V 36.3583 H 560.869 V 0.217285 h 66.916 V 15.2631 H 577.891 V 36.3583 H 620.2 v 15.4106 h -42.309 v 21.1089 h 51.19 v 15.0458 z"
       fill="#181818"
       id="path6895" />
    <path
       d="M 641.85,87.9236 V 0.217285 h 41.075 c 15.563,0.003186 27.136,7.564195 27.136,21.847415 0,10.8806 -4.934,17.498 -15.048,21.2289 9.189,0 13.753,4.159 13.753,12.4159 V 87.9236 H 691.744 V 59.9297 c 0,-6.2997 -1.85,-8.1346 -8.203,-8.1346 h -24.669 v 36.1285 z m 17.022,-51.5979 h 18.995 c 9.93,0 15.11,-3.2889 15.11,-10.4724 0,-7.1835 -4.995,-10.5902 -15.11,-10.5902 h -18.995 z"
       fill="#181818"
       id="path6897" />
  </g>
</svg>
