<?xml version="1.0" standalone="no"?>
<!DOCTYPE svg PUBLIC "-//W3C//DTD SVG 20010904//EN"
 "http://www.w3.org/TR/2001/REC-SVG-20010904/DTD/svg10.dtd">
<svg version="1.0" xmlns="http://www.w3.org/2000/svg"
 width="260.000000pt" height="260.000000pt" viewBox="0 0 260.000000 260.000000"
 preserveAspectRatio="xMidYMid meet">
<metadata>
Created by potrace 1.14, written by Peter Selinger 2001-2017
</metadata>
<g transform="translate(0.000000,260.000000) scale(0.100000,-0.100000)"
fill="#000000" stroke="none">
<path d="M316 2330 c-3 -5 0 -380 3 -390 2 -11 390 -6 394 5 3 9 1 354 -2 380
-1 10 -390 15 -395 5z"/>
<path d="M1101 1930 c-4 -3 -7 -93 -7 -200 l1 -195 200 0 200 0 0 187 c0 103
-2 193 -5 200 -4 10 -50 13 -193 13 -103 0 -191 -2 -196 -5z"/>
<path d="M322 1515 c-12 -17 -9 -384 3 -388 9 -3 372 -1 385 2 4 1 5 374 1
391 -2 10 -383 5 -389 -5z"/>
<path d="M1882 1495 c-11 -17 -9 -384 3 -388 9 -3 338 -1 375 2 13 1 15 28 14
194 -1 105 -2 194 -3 197 -2 11 -382 6 -389 -5z"/>
<path d="M1101 1070 c-4 -3 -7 -93 -7 -200 l1 -195 200 0 200 0 0 198 c0 108
-2 198 -5 198 -19 4 -382 4 -389 -1z"/>
<path d="M317 655 c-2 -5 -3 -95 -3 -200 l1 -190 197 0 c127 0 199 3 201 10 3
9 1 372 -2 385 -2 10 -391 6 -394 -5z"/>
</g>
</svg>
